<?xml version="1.0" encoding="utf-8"?>
<!-- Generator: Adobe Illustrator 27.3.1, SVG Export Plug-In . SVG Version: 6.00 Build 0)  -->
<svg version="1.1" id="Livello_1" xmlns="http://www.w3.org/2000/svg" xmlns:xlink="http://www.w3.org/1999/xlink" x="0px" y="0px"
	 viewBox="0 0 595.3 226.8" style="enable-background:new 0 0 595.3 226.8;" xml:space="preserve">
<style type="text/css">
	.st0{fill:#1C1C1B;}
	.st1{fill:#6F6F6E;}
	.st2{fill:#1B1B1A;}
</style>
<g>
	<g>
		<path class="st0" d="M207.5,10.6h25.1c20.2,0,34.2,13.9,34.2,32v0.2c0,18.1-14,32.2-34.2,32.2h-25.1V10.6z M221.7,23.4v38.8h10.9
			c11.6,0,19.4-7.8,19.4-19.2v-0.2c0-11.4-7.8-19.4-19.4-19.4H221.7z"/>
		<path class="st0" d="M277.6,10.6h26.3c15.4,0,24.7,9.1,24.7,22.3V33c0,14.9-11.6,22.6-26,22.6h-10.8V75h-14.2V10.6z M303,43.1
			c7.1,0,11.2-4.2,11.2-9.8v-0.2c0-6.3-4.4-9.8-11.5-9.8h-10.9v19.7H303z"/>
		<path class="st0" d="M339.7,10.6h14.2V75h-14.2V10.6z"/>
		<path class="st0" d="M390.2,10.1h13.1L430.9,75h-14.8l-5.9-14.4H383L377.1,75h-14.4L390.2,10.1z M405.1,48l-8.6-20.9L388,48H405.1
			z"/>
	</g>
	<g>
		<path class="st0" d="M207.6,100.6h6.7c5.4,0,9.1,3.7,9.1,8.5v0c0,4.8-3.7,8.6-9.1,8.6h-6.7V100.6z M211.3,104v10.3h2.9
			c3.1,0,5.2-2.1,5.2-5.1v0c0-3-2.1-5.2-5.2-5.2H211.3z"/>
		<path class="st0" d="M226.9,100.6h3.8v17.2h-3.8V100.6z"/>
		<path class="st0" d="M235,100.6h7c4.1,0,6.6,2.4,6.6,5.9v0c0,4-3.1,6-6.9,6h-2.9v5.1H235V100.6z M241.7,109.3c1.9,0,3-1.1,3-2.6v0
			c0-1.7-1.2-2.6-3.1-2.6h-2.9v5.2H241.7z"/>
		<path class="st0" d="M257.2,100.5h3.5l7.4,17.3h-3.9l-1.6-3.8h-7.3l-1.6,3.8h-3.8L257.2,100.5z M261.2,110.6l-2.3-5.6l-2.3,5.6
			H261.2z"/>
		<path class="st0" d="M270.7,100.6h7.8c2.2,0,3.9,0.6,5,1.7c1,1,1.5,2.3,1.5,3.9v0c0,2.8-1.5,4.5-3.7,5.3l4.2,6.1h-4.4l-3.7-5.5h-3
			v5.5h-3.8V100.6z M278.3,109c1.8,0,2.9-1,2.9-2.4v0c0-1.6-1.1-2.5-3-2.5h-3.7v4.9H278.3z"/>
		<path class="st0" d="M292.4,104.1h-5.2v-3.5h14.2v3.5h-5.2v13.7h-3.8V104.1z"/>
		<path class="st0" d="M304.4,100.6h3.8v17.2h-3.8V100.6z"/>
		<path class="st0" d="M312.5,100.6h4.1l4.5,7.3l4.5-7.3h4.1v17.2h-3.7v-11.2l-4.8,7.3H321l-4.8-7.3v11.1h-3.7V100.6z"/>
		<path class="st0" d="M333.8,100.6h12.9v3.4h-9.2v3.5h8.1v3.4h-8.1v3.6h9.3v3.4h-13.1V100.6z"/>
		<path class="st0" d="M350.2,100.6h3.5l8,10.6v-10.6h3.7v17.2h-3.2l-8.3-10.9v10.9h-3.7V100.6z"/>
		<path class="st0" d="M373.5,104.1h-5.2v-3.5h14.2v3.5h-5.2v13.7h-3.8V104.1z"/>
		<path class="st0" d="M384.7,109.3L384.7,109.3c0-4.9,3.8-8.9,9.1-8.9s9.1,3.9,9.1,8.8v0c0,4.9-3.8,8.9-9.1,8.9
			C388.5,118.1,384.7,114.1,384.7,109.3z M398.9,109.3L398.9,109.3c0-3-2.2-5.4-5.2-5.4c-3,0-5.1,2.4-5.1,5.3v0
			c0,2.9,2.2,5.4,5.2,5.4C396.8,114.6,398.9,112.2,398.9,109.3z"/>
		<path class="st0" d="M207.6,126.6h7c4.1,0,6.6,2.4,6.6,5.9v0c0,4-3.1,6-6.9,6h-2.9v5.1h-3.8V126.6z M214.3,135.3
			c1.9,0,3-1.1,3-2.6v0c0-1.7-1.2-2.6-3.1-2.6h-2.9v5.2H214.3z"/>
		<path class="st0" d="M223.2,135.3L223.2,135.3c0-4.9,3.8-8.9,9.1-8.9c5.3,0,9.1,3.9,9.1,8.8v0c0,4.9-3.8,8.9-9.1,8.9
			S223.2,140.1,223.2,135.3z M237.5,135.3L237.5,135.3c0-3-2.2-5.4-5.2-5.4s-5.1,2.4-5.1,5.3v0c0,2.9,2.2,5.4,5.2,5.4
			C235.4,140.6,237.5,138.2,237.5,135.3z"/>
		<path class="st0" d="M244.8,126.6h3.8v13.7h8.6v3.4h-12.3V126.6z"/>
		<path class="st0" d="M260.1,126.6h3.8v17.2h-3.8V126.6z"/>
		<path class="st0" d="M272.2,130.1h-5.2v-3.5h14.2v3.5h-5.2v13.7h-3.8V130.1z"/>
		<path class="st0" d="M284,126.6H297v3.4h-9.2v3.5h8.1v3.4h-8.1v3.6h9.3v3.4H284V126.6z"/>
		<path class="st0" d="M299.7,135.3L299.7,135.3c0-4.9,3.7-8.9,8.9-8.9c3.2,0,5.2,1.1,6.8,2.6l-2.4,2.8c-1.3-1.2-2.7-1.9-4.4-1.9
			c-2.9,0-5,2.4-5,5.3v0c0,2.9,2,5.4,5,5.4c2,0,3.2-0.8,4.5-2l2.4,2.4c-1.8,1.9-3.7,3.1-7,3.1C303.4,144.1,299.7,140.2,299.7,135.3z
			"/>
		<path class="st0" d="M318.5,126.6h3.5l8,10.6v-10.6h3.7v17.2h-3.2l-8.3-10.9v10.9h-3.7V126.6z"/>
		<path class="st0" d="M338.1,126.6h3.8v17.2h-3.8V126.6z"/>
		<path class="st0" d="M345.4,135.3L345.4,135.3c0-4.9,3.7-8.9,8.9-8.9c3.2,0,5.2,1.1,6.8,2.6l-2.4,2.8c-1.3-1.2-2.7-1.9-4.4-1.9
			c-2.9,0-5,2.4-5,5.3v0c0,2.9,2,5.4,5,5.4c2,0,3.2-0.8,4.5-2l2.4,2.4c-1.8,1.9-3.7,3.1-7,3.1C349.1,144.1,345.4,140.2,345.4,135.3z
			"/>
		<path class="st0" d="M363.4,135.3L363.4,135.3c0-4.9,3.8-8.9,9.1-8.9c5.3,0,9.1,3.9,9.1,8.8v0c0,4.9-3.8,8.9-9.1,8.9
			S363.4,140.1,363.4,135.3z M377.7,135.3L377.7,135.3c0-3-2.2-5.4-5.2-5.4c-3,0-5.1,2.4-5.1,5.3v0c0,2.9,2.2,5.4,5.2,5.4
			C375.6,140.6,377.7,138.2,377.7,135.3z"/>
		<path class="st0" d="M392.4,126.6h6.7c5.4,0,9.1,3.7,9.1,8.5v0c0,4.8-3.7,8.6-9.1,8.6h-6.7V126.6z M396.1,130v10.3h2.9
			c3.1,0,5.2-2.1,5.2-5.1v0c0-3-2.1-5.2-5.2-5.2H396.1z"/>
		<path class="st0" d="M411.7,126.6h3.8v17.2h-3.8V126.6z"/>
		<path class="st0" d="M427.3,126.6h3.8v17.2h-3.8V126.6z"/>
		<path class="st0" d="M435.3,126.6h3.5l8,10.6v-10.6h3.7v17.2h-3.2l-8.3-10.9v10.9h-3.7V126.6z"/>
		<path class="st0" d="M453.9,135.3L453.9,135.3c0-4.9,3.8-8.9,9-8.9c3.1,0,5,0.8,6.7,2.4l-2.4,2.9c-1.3-1.1-2.5-1.7-4.5-1.7
			c-2.7,0-4.9,2.4-4.9,5.3v0c0,3.1,2.2,5.4,5.2,5.4c1.4,0,2.6-0.3,3.6-1v-2.5h-3.8v-3.3h7.5v7.5c-1.8,1.5-4.2,2.7-7.3,2.7
			C457.6,144.1,453.9,140.3,453.9,135.3z"/>
		<path class="st0" d="M473.9,126.6h12.9v3.4h-9.2v3.5h8.1v3.4h-8.1v3.6h9.3v3.4h-13.1V126.6z"/>
		<path class="st0" d="M489.6,135.3L489.6,135.3c0-4.9,3.8-8.9,9-8.9c3.1,0,4.9,0.8,6.7,2.4l-2.4,2.9c-1.3-1.1-2.5-1.7-4.5-1.7
			c-2.7,0-4.9,2.4-4.9,5.3v0c0,3.1,2.2,5.4,5.2,5.4c1.4,0,2.6-0.3,3.6-1v-2.5h-3.8v-3.3h7.5v7.5c-1.8,1.5-4.2,2.7-7.3,2.7
			C493.2,144.1,489.6,140.3,489.6,135.3z"/>
		<path class="st0" d="M509.5,126.6h3.5l8,10.6v-10.6h3.7v17.2h-3.2l-8.3-10.9v10.9h-3.7V126.6z"/>
		<path class="st0" d="M528.9,126.6h12.9v3.4h-9.2v3.5h8.1v3.4h-8.1v3.6h9.3v3.4h-13.1V126.6z"/>
		<path class="st0" d="M545.3,126.6h7.8c2.2,0,3.9,0.6,5,1.7c1,1,1.5,2.3,1.5,3.9v0c0,2.8-1.5,4.5-3.7,5.3l4.2,6.1h-4.4l-3.7-5.5h-3
			v5.5h-3.8V126.6z M552.9,135c1.8,0,2.9-1,2.9-2.4v0c0-1.6-1.1-2.5-3-2.5h-3.7v4.9H552.9z"/>
		<path class="st0" d="M563.2,126.6h3.8v17.2h-3.8V126.6z"/>
		<path class="st0" d="M577.1,126.5h3.5l7.4,17.3H584l-1.6-3.8h-7.3l-1.6,3.8h-3.8L577.1,126.5z M581.1,136.6l-2.3-5.6l-2.3,5.6
			H581.1z"/>
		<path class="st0" d="M207.6,152.6h12.9v3.4h-9.2v3.5h8.1v3.4h-8.1v3.6h9.3v3.4h-13.1V152.6z"/>
		<path class="st0" d="M237.2,152.5h3.5l7.4,17.3h-3.9l-1.6-3.8h-7.3l-1.6,3.8h-3.8L237.2,152.5z M241.2,162.6l-2.3-5.6l-2.3,5.6
			H241.2z"/>
		<path class="st0" d="M250.7,152.6h7.8c2.2,0,3.9,0.6,5,1.7c1,1,1.5,2.3,1.5,3.9v0c0,2.8-1.5,4.5-3.7,5.3l4.2,6.1h-4.4l-3.7-5.5h-3
			v5.5h-3.8V152.6z M258.3,161c1.8,0,2.9-1,2.9-2.4v0c0-1.6-1.1-2.5-3-2.5h-3.7v4.9H258.3z"/>
		<path class="st0" d="M267.6,161.3L267.6,161.3c0-4.9,3.7-8.9,8.9-8.9c3.2,0,5.2,1.1,6.8,2.6l-2.4,2.8c-1.3-1.2-2.7-1.9-4.4-1.9
			c-2.9,0-5,2.4-5,5.3v0c0,2.9,2,5.4,5,5.4c2,0,3.2-0.8,4.5-2l2.4,2.4c-1.8,1.9-3.7,3.1-7,3.1C271.4,170.1,267.6,166.2,267.6,161.3z
			"/>
		<path class="st0" d="M286.5,152.6h3.8v6.8h7v-6.8h3.8v17.2h-3.8v-6.9h-7v6.9h-3.8V152.6z"/>
		<path class="st0" d="M305.3,152.6h3.8v17.2h-3.8V152.6z"/>
		<path class="st0" d="M317.3,156.1h-5.2v-3.5h14.2v3.5h-5.2v13.7h-3.8V156.1z"/>
		<path class="st0" d="M329.2,152.6h12.9v3.4H333v3.5h8.1v3.4H333v3.6h9.3v3.4h-13.1V152.6z"/>
		<path class="st0" d="M349.6,156.1h-5.2v-3.5h14.2v3.5h-5.2v13.7h-3.8V156.1z"/>
		<path class="st0" d="M365.5,156.1h-5.2v-3.5h14.2v3.5h-5.2v13.7h-3.8V156.1z"/>
		<path class="st0" d="M377.1,162.4v-9.8h3.8v9.7c0,2.8,1.4,4.2,3.7,4.2s3.7-1.4,3.7-4.1v-9.8h3.8v9.7c0,5.2-2.9,7.7-7.5,7.7
			S377.1,167.5,377.1,162.4z"/>
		<path class="st0" d="M395.9,152.6h7.8c2.2,0,3.9,0.6,5,1.7c1,1,1.5,2.3,1.5,3.9v0c0,2.8-1.5,4.5-3.7,5.3l4.2,6.1h-4.4l-3.7-5.5h-3
			v5.5h-3.8V152.6z M403.5,161c1.8,0,2.9-1,2.9-2.4v0c0-1.6-1.1-2.5-3-2.5h-3.8v4.9H403.5z"/>
		<path class="st0" d="M419.5,152.5h3.5l7.4,17.3h-3.9l-1.6-3.8h-7.3l-1.6,3.8h-3.8L419.5,152.5z M423.5,162.6l-2.3-5.6l-2.3,5.6
			H423.5z"/>
		<path class="st1" d="M207.3,188.4v-9.8h3.8v9.7c0,2.8,1.4,4.2,3.7,4.2s3.7-1.4,3.7-4.1v-9.8h3.8v9.7c0,5.2-2.9,7.7-7.5,7.7
			C210.1,196.1,207.3,193.5,207.3,188.4z"/>
		<path class="st1" d="M226.1,178.6h3.5l8,10.6v-10.6h3.7v17.2h-3.2l-8.3-10.9v10.9h-3.7V178.6z"/>
		<path class="st1" d="M245.6,178.6h3.8v17.2h-3.8V178.6z"/>
		<path class="st1" d="M252.2,178.6h4.2l4.5,12.1l4.5-12.1h4.1l-6.9,17.3h-3.3L252.2,178.6z"/>
		<path class="st1" d="M272.1,178.6H285v3.4h-9.2v3.5h8.1v3.4h-8.1v3.6h9.3v3.4h-13.1V178.6z"/>
		<path class="st1" d="M288.5,178.6h7.8c2.2,0,3.9,0.6,5,1.7c1,1,1.5,2.3,1.5,3.9v0c0,2.8-1.5,4.5-3.7,5.3l4.2,6.1h-4.4l-3.7-5.5h-3
			v5.5h-3.8V178.6z M296.1,187c1.8,0,2.9-1,2.9-2.4v0c0-1.6-1.1-2.5-3-2.5h-3.7v4.9H296.1z"/>
		<path class="st1" d="M305,193.3l2.2-2.7c1.5,1.3,3.2,2.1,5.1,2.1c1.5,0,2.5-0.6,2.5-1.6v0c0-1-0.6-1.4-3.5-2.2
			c-3.5-0.9-5.7-1.8-5.7-5.2v0c0-3.1,2.5-5.2,6-5.2c2.5,0,4.6,0.8,6.4,2.2l-2,2.8c-1.5-1.1-3-1.7-4.5-1.7s-2.2,0.7-2.2,1.5v0
			c0,1.1,0.7,1.5,3.7,2.3c3.5,0.9,5.4,2.2,5.4,5.1v0c0,3.4-2.6,5.3-6.3,5.3C309.7,196,307.1,195.1,305,193.3z"/>
		<path class="st1" d="M322,178.6h3.8v17.2H322V178.6z"/>
		<path class="st1" d="M334.1,182.1h-5.2v-3.5h14.2v3.5h-5.2v13.7h-3.8V182.1z"/>
		<path class="st1" d="M351.8,178.5h3.5l7.4,17.3h-3.9l-1.6-3.8h-7.3l-1.6,3.8h-3.8L351.8,178.5z M352.3,177l-3.3-2.5l3.2-1.4l3,3.8
			H352.3z M355.8,188.6l-2.3-5.6l-2.3,5.6H355.8z"/>
		<path class="st1" d="M372.7,178.6h6.7c5.4,0,9.1,3.7,9.1,8.5v0c0,4.8-3.7,8.6-9.1,8.6h-6.7V178.6z M376.4,182v10.3h2.9
			c3.1,0,5.2-2.1,5.2-5.1v0c0-3-2.1-5.2-5.2-5.2H376.4z"/>
		<path class="st1" d="M391.8,178.6h12.9v3.4h-9.2v3.5h8.1v3.4h-8.1v3.6h9.3v3.4h-13.1V178.6z"/>
		<path class="st1" d="M407.5,187.3L407.5,187.3c0-4.9,3.8-8.9,9-8.9c3.1,0,5,0.8,6.7,2.4l-2.4,2.9c-1.3-1.1-2.5-1.7-4.5-1.7
			c-2.7,0-4.9,2.4-4.9,5.3v0c0,3.1,2.2,5.4,5.2,5.4c1.4,0,2.6-0.3,3.6-1v-2.5h-3.8v-3.3h7.4v7.5c-1.8,1.5-4.2,2.7-7.3,2.7
			C411.2,196.1,407.5,192.3,407.5,187.3z"/>
		<path class="st1" d="M427.5,178.6h3.8v13.7h8.6v3.4h-12.3V178.6z"/>
		<path class="st1" d="M442.8,178.6h3.8v17.2h-3.8V178.6z"/>
		<path class="st1" d="M206.4,219.3l2.2-2.7c1.5,1.3,3.2,2.1,5.1,2.1c1.5,0,2.5-0.6,2.5-1.6v0c0-1-0.6-1.4-3.5-2.2
			c-3.5-0.9-5.7-1.8-5.7-5.2v0c0-3.1,2.5-5.2,6-5.2c2.5,0,4.6,0.8,6.4,2.2l-2,2.8c-1.5-1.1-3-1.7-4.5-1.7c-1.4,0-2.2,0.7-2.2,1.5v0
			c0,1.1,0.7,1.5,3.7,2.3c3.5,0.9,5.4,2.2,5.4,5.1v0c0,3.4-2.6,5.3-6.3,5.3C211.1,222,208.5,221.1,206.4,219.3z"/>
		<path class="st1" d="M227.2,208.1H222v-3.5h14.2v3.5H231v13.7h-3.8V208.1z"/>
		<path class="st1" d="M238.9,214.4v-9.8h3.8v9.7c0,2.8,1.4,4.2,3.7,4.2s3.7-1.4,3.7-4.1v-9.8h3.8v9.7c0,5.2-2.9,7.7-7.5,7.7
			C241.7,222.1,238.9,219.5,238.9,214.4z"/>
		<path class="st1" d="M257.6,204.6h6.7c5.4,0,9.1,3.7,9.1,8.5v0c0,4.8-3.7,8.6-9.1,8.6h-6.7V204.6z M261.4,208v10.3h2.9
			c3.1,0,5.2-2.1,5.2-5.1v0c0-3-2.1-5.2-5.2-5.2H261.4z"/>
		<path class="st1" d="M277,204.6h3.8v17.2H277V204.6z"/>
		<path class="st1" d="M292.4,204.6h6.7c5.4,0,9.1,3.7,9.1,8.5v0c0,4.8-3.7,8.6-9.1,8.6h-6.7V204.6z M296.2,208v10.3h2.9
			c3.1,0,5.2-2.1,5.2-5.1v0c0-3-2.1-5.2-5.2-5.2H296.2z"/>
		<path class="st1" d="M311.7,204.6h3.8v17.2h-3.8V204.6z"/>
		<path class="st1" d="M326.9,214.4v-9.8h3.8v9.7c0,2.8,1.4,4.2,3.7,4.2c2.3,0,3.7-1.4,3.7-4.1v-9.8h3.8v9.7c0,5.2-2.9,7.7-7.5,7.7
			S326.9,219.5,326.9,214.4z"/>
		<path class="st1" d="M345.6,204.6h6.7c5.4,0,9.1,3.7,9.1,8.5v0c0,4.8-3.7,8.6-9.1,8.6h-6.7V204.6z M349.4,208v10.3h2.9
			c3.1,0,5.2-2.1,5.2-5.1v0c0-3-2.1-5.2-5.2-5.2H349.4z"/>
		<path class="st1" d="M365,204.6h3.8v17.2H365V204.6z"/>
		<path class="st1" d="M373,204.6h3.5l8,10.6v-10.6h3.7v17.2h-3.2l-8.3-10.9v10.9H373V204.6z"/>
		<path class="st1" d="M392.4,204.6h12.9v3.4h-9.2v3.5h8.1v3.4h-8.1v3.6h9.3v3.4h-13.1V204.6z"/>
	</g>
	<g>
		<path class="st2" d="M111.7,12.3c0.4,1.3-1.1,2.1-1.9,2.7c-1.4-0.9-2.8-2.7-4.6-1.5c-0.6,0.2-0.2,0.9-0.3,1.3
			c1.6,1.6,4.6,1.9,5,4.2c0.4,2.1-0.3,4.1-2.2,5c-3.7,2-5.7-3.5-9.6-1.1c0.4-1.4,1.5-2.4,2.2-3.7c2.4,0.3,3.1,3.2,6,2.5
			c0.7-0.7,1.9-1.7,0.9-2.7c-2-1.6-5.9-1.7-5.7-5.1c-0.6-1.4,0.8-2,1.2-3C105.9,9.8,108.5,12.3,111.7,12.3"/>
		<path class="st2" d="M76.8,11.7c1.9-0.6,4.4,1.2,6.2-0.5c0.6,1.4-0.9,2.1-0.9,3.3c-1.7-0.7-3.9-2.1-5.6-0.5
			c-0.5,1.2,0.9,1.8,1.7,1.9c2.6,0.1,5.6,0.6,6.7,3.2c0.7,2-0.8,3.4-2.2,4.3c-2.7,1.9-5.5-2.2-7.5,1.2l-0.7,0
			c-0.3-1.6,0.4-2.9,0.6-4.3c2.1,0.3,4.6,3,6.6,0.5c0.2-0.9,0.1-1.2-0.4-2c-2.5-1.9-7.7,0.3-8-4.1c-0.5-1.4,0.5-2.5,1.6-3
			C75.6,12,76.4,11.4,76.8,11.7"/>
		<path class="st2" d="M95.3,16.9c-2,0-1.6,3.1-3.9,2.4c-0.1-1.9-4.3-3-1.7-4.2l2.6-3C93.6,13.2,95.1,14.9,95.3,16.9"/>
		<path class="st2" d="M126.6,18.2c0.7,0.7,2,1.2,1,2.3l-1.6,1.7c-1.3-0.6-1.6-3.1-3.7-2.6c-1.6,2.7-3.9,5.6-2.8,9
			c-2.4,0.4-3.8-1.7-6-1.8c0.1-1.7,2.7-0.7,2.9-2.7c0.9-2.2,2.9-4.4,2.5-6.6c-1.3-1.4-3.1-1.3-5-1.2c-0.4-1.2,0.8-1.8,1.3-2.7
			C119.5,14.2,122.8,16.9,126.6,18.2"/>
		<path class="st2" d="M55.3,22.4l0,1c-1.6-0.4-2.9,0.7-3.6,1.7c0.9,2.7,2.7,5.9,5.7,6.8l0,0.7c-1.7,0.9-3.2,2.5-5.2,2.7
			c1.2-3.4-1.5-6-3.5-8.5c-2.7-0.9-2.9,5.3-4.9,0.8l0-1l8.8-5.8C54.2,20.3,54.6,21.4,55.3,22.4"/>
		<path class="st2" d="M63.5,22.2l-0.3,0.3c-0.7-0.4-0.8-1.1-0.4-1.6C63.1,21.1,63.8,21.6,63.5,22.2 M71.9,26
			c-1.2-1.2-3.5-2.6-4.4-4.2c-2-2-4.2-5.6-7-5.4c-0.4,3.3-0.3,7.2,0.2,10.5c-0.2,1.3-0.8,2.3-0.9,3.6c1.6-0.1,3-0.6,4.3-1.4
			c0.2-1-0.9-1.3-1.4-1.9c0-0.7-0.1-1.4,0.3-2c1.2-0.1,1.8-1.6,3.3-1.1c1.2,0.8,1.5,1.9,1.4,3.3C69,26.9,70.7,27,71.9,26"/>
		<path class="st2" d="M134,23c-3.2,1.2-5.1,4.7-5.1,8c0.5,1.3,1.9,1.9,3.3,1.6c2-2.2,3.9-4.5,4.4-7.3l0.7-0.7
			c1.1,1.2,3.4,1.6,3.4,3.6c-4.5,0.7-4.2,7.2-9.1,7.1c-2.3-0.3-4.8-1.5-5.7-3.8c0.2-4.1,3-7.3,3.7-11.3
			C131.4,20.4,132.9,21.8,134,23"/>
		<path class="st2" d="M40.7,31c1,2.1,2.4,4,4.1,5.8c0.8,1.8,2.7,0.7,3.7,1.9c-1.2,0.8-2.2,3.4-4.2,3.1c-0.8-3.5-3.8-6.3-6.5-8.7
			l-0.7,0C37.4,31.7,40,28.6,40.7,31"/>
		<path class="st2" d="M35.9,39.3c-2.2,0.5-4,1.7-4.5,4.1c1,1.6,2.2-0.3,3.3-0.4c0.9-1.4,2.2-1.8,3.6-2.1c1.3,0.4,3.2,0.1,3.7,1.9
			c0.6,2.2-0.8,3.9-2.5,5c-1.1,0.3-2.1,1-2.9,2c-0.2,0.9-0.2,1.4,0.1,2.3c-0.3-0.1-0.5,0.2-0.6,0.3c-0.9-1.2-1.9-2.3-1.7-3.9
			c1.5-0.8,3.3-2.4,3.9-4c-0.5-1.1-2-0.7-2.6-0.3c-1.3,1.7-3,2.4-5.2,2.1c-1.2-0.5-1.8-1.7-2-2.9c-0.5-1.9,1.8-3,2.9-4
			c2.8,0.3,1.6-5.3,4.2-2.4L35.9,39.3z"/>
		<path class="st2" d="M146.6,39.8c-0.7,1.2-1.9,1.3-2.9,1.7c-1.3,0.1-1.9-1.6-3-1.9c0.4-2.2,2.8-3.9,4.5-5.4c0.9-0.2,1.7,0.9,2,1.6
			C147.9,37.1,147.2,38.7,146.6,39.8 M144.7,30l-1.3,0c-1.6,3.1-4.1,7.6-8,8.1l5.1,5.2c1.9,1.2,4.9,1.8,6.9,0.5
			c2.4-1.4,3.4-3.8,3.5-6.3C149.9,34.4,147.3,31.9,144.7,30"/>
		<path class="st2" d="M157.9,44.8c-3.9,1.1-8.7,3-10,7.1l-0.3,0.3c-1.4-1.5-2.4-3.1-3.1-4.9c4.4,0.2,7.9-3.2,10.1-6.8
			C156.2,41.2,156.7,43.4,157.9,44.8"/>
		<path class="st2" d="M24.5,59c-1.1-0.3-3.3-0.5-2.7-2.2c1.3-1.1,2.1-4.4,4.2-2.4C26.5,56.3,25.6,57.7,24.5,59 M30.7,54.9
			c-1.8-0.1-1.9-2-2.4-3.2c-1.4-0.4-2.5-1.8-4.3-1.2c-3.4,2.3-4.5,6.6-5.7,10.3c4.2,0.2,8.3,1.4,11,4.7c1.1-1.3,1.7-2.9,1.9-4.6
			c-1.6,0-2.4,0.5-3.6-0.6c0.2-1.4,0.7-2.6,1.6-3.7c1.8-0.9,2.7,1.4,3.7,1.9c1-1.2,1.6-2.6,2.2-4C33.7,54.1,32.3,55.3,30.7,54.9"/>
		<path class="st2" d="M160.8,58.2c-1.4,1.3-3.7,1.7-5.6,1.1c-1.4-0.7-1.2-2.1-1.7-3.3c0.5-1.7,1.1-3.2,2.9-4
			c1.9-0.2,3.9-0.1,4.7,1.9C161.5,55.2,161.8,57.2,160.8,58.2 M162,51.3c-2.5-2.8-7.6-2.3-9.9,0.5c-1.2,2-1.8,5.1-0.5,7.3
			c1.4,2.1,3.6,3.8,6.3,3.5c2.2-0.4,4.4-1.9,5.5-3.4C163.9,56.5,163.9,53.3,162,51.3"/>
		<path class="st2" d="M20.1,66c-2.6,1.4-3.4,4.1-3.8,6.7c0.8,0.9,1.7,1.6,3,1.3c1.4-1.1,0-2.6,0.2-4c1.2,0.3,2.6,0.3,3.6,0.9
			c0.8,1.5-3,2.5-0.2,3.6c2.4,0.4,2.5-2.3,3.2-3.7c0.5-1.5-1-2.1-1.1-3.3c1.5-0.3,2.6,0.5,3.7,1.2c-0.6,3.1-2.6,5.7-2.8,8.9
			c-1.3,1-2.1-1.1-3.3-1.2c-3.1,0.3-5.5-1.8-8.6-0.5c-0.5-0.5-0.5-1.7-0.1-2.3c0.9-3,1.8-6,2.8-8.9C18.2,64.2,19,65.5,20.1,66"/>
		<path class="st2" d="M164.7,72c-1.4-0.2-1.2-1.7-1.7-2.6c0.8-1.7,3.5-1.1,3,0.9C166.1,71.3,165.6,71.7,164.7,72 M167.2,63l-1,0
			c-1.6,3.5-5.5,2.9-8.5,3.8c-0.9-0.2-1.4-0.2-2.3,0.1l0.8,3.9c1.3,2,1.9-1.4,3.3-1.1c0.8,0.6,1.2,1.3,1,2.3
			c-0.9,1.1-1.9,1.9-3.2,2.1c0,1.7,0,3.8,1.4,4.6c0.2-0.6,0.9-0.9,0.6-1.7c0.7-1.3,1.9-2.6,3.6-2.4c1.1,1.7,3.5,0.9,5,0.5
			C172,72,167.8,66.9,167.2,63"/>
		<path class="st2" d="M24.8,87.9c0.5,1.2-0.6,2.3-1.6,2.3c-3.5,1.7-7.6,2-10.4,5.2C12.4,94,12,91.8,13,90.5c2.9,1.3,5-0.9,7.2-2.1
			c-0.8-2.2-3.6-2.3-5.3-3.5l-2.3,0.4c0.3-1.7-0.2-3.8,0.9-5.3C16.6,83.6,20.9,85.8,24.8,87.9"/>
		<path class="st2" d="M170.8,79.4c0.6,1.5,0.3,3.5,0.4,5.3c-2.1-1.4-5.1-1.5-7.6-0.8c-0.8,0.2-1.3,1.1-1.9,1.7
			c-0.4,1.8,0.5,3.3,2.1,3.9c2.5,0,5,0,6.9-1.5l1,0c-1.1,1.8,0.8,3.5-0.2,5.3c-1.4,0.5-1.9-1.3-3-1.6c-3.3-0.2-7.4,1.1-9.3-2.1
			c-1.3-2-0.7-4.8,0.5-6.6c2.3-3.1,7.6-0.9,10.5-3.5L170.8,79.4z"/>
		<path class="st2" d="M162.6,96.4c2.6,0.9,5.1,3,7.9,2.1c0.2,0.9,1,1.6,0.4,2.6c-1.9,1.5-6.6,1-5.8,4.4c1.6,2.4,6,3.5,3.4,6.8
			c-0.2,0.4-0.6,0.3-1,0.3l-1.4-1.3c-3.3,0.2-7-1.6-9.9,0.5c-0.4-0.1-1.1,0.3-1.3-0.3c0.6-1.5,0.3-4.2,2.2-4.3
			c0.7,2.3,3.5,0.7,5,1.5c0.4-0.6,1.3-0.2,1.6-1c-0.8-1.7-2.3-3-3.4-4.5c1.4-1.3,3.3-1.1,4.5-2.7c-1.3-1.1-2.7-1.8-4.3-2.2
			c-0.8,0.2-1.3,1-2.3,0.7l0.5-5C160.6,93.9,161.3,96,162.6,96.4"/>
		<path class="st2" d="M25.2,102.1c-2.8-2.7-6.1,0.1-9.2,0.2c-0.6,0.8-1.3,1.9-1.9,2.3c-0.8-1.5-1.5-3.9-0.8-5.9
			c0.8,0.1,1.2,1.2,2,1.3c3.2-0.7,7,0,9.5-2.2C25.3,99,25.1,101.1,25.2,102.1"/>
		<path class="st2" d="M126.7,78.3c0.6-0.4,0.7-1,0.6-1.7l-0.7-0.6c-0.9,1-1.4-1-2.3-0.9l-0.6,1c-1.4,10.5-0.8,21.3,1.7,31.2
			c-0.1-0.2-1.2-2.8-1.7-4.2c-1.7-8.4-1-17.9-5.2-25.2c-0.5-0.1-0.6,0.5-1,0.7l-0.8,8.9l-1.2,19.5l0.2,8.2
			c-1.6-3.3-1.3-7.4-1.9-11.1c0.3-7.9,0.5-16.6-2.2-23.7c-0.4,0.1-1.1-0.3-1.3,0.4c-0.1-1.3-1.3-2.6-0.4-3.9
			c1.7-1.6,0.3-6.5,3.5-5.3c0.3-0.6,1.1-0.3,1.6-0.4c0.8,1.9-0.7,3.7-1.5,5.3c-0.7,2.3,0.1,5.7,0.8,8.2c1,0.1,0.3-1,1-1.3
			c-1.1-1.6,0.7-3.3-0.5-4.9c0.8-3.2,3.6-6,2.4-9.6c0.2-0.6,0.9-0.2,1.3-0.4c0.4,1.7-0.7,3.6,0.8,5.2c2.2,1,1.2,4.1,2.4,5.9
			c0.1-2.4,1.2-6.1-1.2-7.9c-0.1-2,1.1-4.7-0.8-6.2c-0.9-0.2-1.3,0.5-1.9,0.7c-0.6-0.2-0.2-0.9-0.4-1.3c1.1-1,2.3-1.7,3.9-1.4
			c-1,5.1,5.2,6.1,4.5,11.1l0.7,0.6c0.1-1.8-0.3-4.1-1.1-5.9c-2.8-1.8-1-6.4-2.9-8.3c-0.2-0.1-0.3-0.3-0.5-0.4
			c-0.5-0.3-1.2-0.4-2.1-0.4c-0.2,0.3-0.8,0.5-0.6,1c-1.8-0.5,0.6-1.6,0.3-2.6c0.3-0.4,0.8-0.5,1.3-0.7c0,1.3,0.5,2.1,1.2,2.7
			c0.2,0.1,0.4,0.2,0.5,0.4c1.4,1,3.3,1.7,3.4,4l1,1l0.3-0.3c-0.7-2.3-1.5-4.9-3.1-6.5c-1.7-2-1.9-6.5-5.7-5.8
			c-0.7,0.6-1.4,1.6-0.6,2.3l0.3,0.3l-0.6,0.7c-3.9-1.9-0.2-9.2-6.4-8.1l-0.6,0.7l0.3,0.3l-0.3,0.3l-0.3-0.3c-1,0.5-0.5,1.5-0.6,2.3
			c0.4,0.6,1,0.7,1.7,0.6l1.3-1.7l1,1c-0.5,2.2-4.2,1.1-3.5,4c-1.6-1.6-3.9-4.3-2.1-6.9c0.8-1.4,1.1-2.9,0.9-4.6
			c0.6,1,0.2,2.7,1.7,2.9c1.3-0.6,3.2-1,4.6-0.4c2.3,2,5.8,2.9,8.6,1.5c1.3,0.8,0.3,2.1-0.3,3l-1.6,1.7c4.4,3.2,6,8.1,7.2,13
			c1.7,2.4,3.1,5.5,6.1,6.8c-3.2,0.2-5.3-2.5-8-3.8c-2,3.2,1,5.9,1.5,8.8c0,4.9,2.9,8.5,2.9,13.4l1.7,4.2
			C129.2,90.4,128.9,83.9,126.7,78.3 M126.6,88.5l-1,0.3c-0.5-2,0.1-3.2-0.1-5.3C126.1,85.1,126.9,86.5,126.6,88.5 M108.7,84.6
			c0.6,1.7,0.3,2.7,0.4,4.6C108.1,88.4,108.4,85.9,108.7,84.6 M108,81.3c0-0.8-0.3-1.5-1-2c-0.7,0.1-1.1,0.9-1.6,1.3
			c-0.9-1.5-1.1-3.4-2.3-4.8c-0.1,0-0.2,0.1-0.3,0.1c-1.8,2.1-1.9,6.8-5.5,6.5c-0.9-0.7-1.9-1.8-1-2.9c1.7-2.3,4.5,0.3,5.5-2.8
			c0.3-0.4,0.6-0.6,1.1-0.8c0.1-0.1,0.2-0.2,0.2-0.2c0,0,0.1,0.1,0.1,0.1c1.5-0.5,3.2-0.6,2.8-2.8c-0.5-0.6-1.3-0.2-2-0.3
			c-0.1-0.8,0.8-0.7,1.3-0.7c1.1,0.9,2.4,1.6,4,1.2c0.2,2.1-1.6,3.8-0.9,5.6L108,81.3z M101.6,103.5c-1.1,0.7-2.6,1.5-3.9,0.8
			c-1-1.3-2.4-1.5-2.4-3.2c1.6-2.6,4.6,0.8,6.2-1.8C103,100.4,101.6,102.1,101.6,103.5 M99.9,85.1l0.7,0c0.4,2-0.4,3.4-1.9,4.7
			c-1-0.6-1.8-1-2-2.3C96.1,84.9,99.1,86.6,99.9,85.1 M95.1,90.8c1.8,0.6,4.2,2.9,5.9,0.5c0.4,1.9-0.2,4.1-1.9,5.6
			c-1.8,0.3-3.5-1.3-4-2.9C94.6,93.2,94.6,91.7,95.1,90.8 M91.4,89.9c-1.3-1.9-3.3-3.9-2.1-6.5c2,2.4,7.2-2.6,5.3,2.8
			C94.1,87.7,93.4,89.9,91.4,89.9 M91.9,127.1c0.4,0.4,0.4,1,1,1.3c0.8,0.1,1.4-0.4,2-0.7c1.7,1.6-2.4,3.8,1.1,4.9
			c1.9,0.1,3-1.9,4.9-1.8c0.2,1.2-0.5,2.3-1.6,2.7c-1.5-0.2-3.1,0.2-3.6,1.7c-0.1,1.7,1.4,2.4,2.7,2.9c0.7,0,1.6-0.2,2,0.6
			c-2.8,1.2-4.9-3.3-7.6-1.1c-0.8,2.7,2.4,5.7-1.8,6.3c-3.7-0.5,0.5-7.2-4.1-5.5c-1,0.7-2.2,2-3.6,1.1l-0.3-0.3
			c1.7-0.8,3.7-1.4,4.5-3.4c-0.4-0.7-0.6-1.4-1.4-1.9c-1.2-0.5-2.8-0.1-3.7-1.6c1.6,1.5,5.1-0.4,5.6,2.5c-0.6,0.3-0.2,0.9-0.3,1.3
			c0.4,0.6,1,0.7,1.7,0.6c0.9,0.9-0.5,3.9,2,2.9c0.8-1.4,0.6-4.4,3.2-4c0.3-0.7,1.1-1.6,0.3-2.3c-2.3-0.7-0.6-3.2-2.1-4.2
			c-1.5,0.2-3.3-0.4-4.2,1.1c-0.9-0.1-1.6-0.9-2.3-1.6l0-0.7c1.6-0.3,3,2.8,4.3,0.2c-0.7-3,2.3-4.5,1.2-7.6l0.3-0.3l-0.3-0.3
			c0.7-5.1,0.8-10.3,2-15.2l0.7,0.6C91.1,111.6,93.3,120,91.9,127.1 M89,97.5c0.1-1.5,0.8-3,2.2-3.7c2.1-0.3,2,2.2,3,3.2
			c-0.5,1.4-1.3,2.6-2.6,3.7C89.8,100.7,89.9,98.6,89,97.5 M87.8,105.5l0.7,0.6c0.6,3.1,1.2,6.2,1.5,9.5l-0.7-0.6L87.8,105.5z
			 M86.1,102.9c-1.3,1-2.6,2.3-4.3,1.1c-1.7-0.6-1-3.3-0.8-4.6c1.4-1,2.4,2.7,4.3,0.9l1.3-1C89,99.9,86.6,101.8,86.1,102.9
			 M80.6,76.3c-1.6,1.2-0.7,3.3-1.9,4.7c-0.8-0.4-1.1-2.4-2.7-1.6c-1,2.8-0.5,6.1-1.4,8.9c-0.6-1-0.3-2.4-0.4-3.6l1-1
			c-3.3-0.4-0.3-7.2-4-3.9c-0.2,2.3-0.8,4.8-0.5,6.9l-1.6,18.8l-0.3,0.3c0.4-9.6-1.8-19.1-1.3-29.3l-0.7-1.3
			c-1.7,1.1-2.6,2.6-3.2,4.2c0,0,0,0.1,0,0.1l-0.1,0.1c-1.3,3.9-0.5,8.8-1.6,12.8c-1.9,5.5-0.7,12.2-5.6,16.6l-0.7,0
			c6.1-8.6,3.7-20.5,6.2-30.4c-1.5-1.4,1.5-4.4-1.4-4.2c-3.4,6.1-5.8,12.6-9.5,18.6c-0.2-1.4,1.8-2.7,2.2-4.3
			c0.4-6.2,2.6-11.7,4.9-17.2c-0.1-0.6,0.3-1.7-0.7-1.6c-2.5,0.4-4.4,2.3-7.2,2.1l-1.3,0c2.1-1.9,5.2-2.9,7.1-5.8
			c3.6-4.3,2.9-10.1,7.6-14c0.3-3.3-5.5,0-4-3.9c3.5,3.2,7.2-0.6,10.8-0.9c0.9-1.1,0.8-2.6,1.9-3.7c0.8,2.9,3.5,7.4-0.1,10.2
			c-1,1.6-2.2-0.2-3.6,0.4c-1.3-0.3-1.7-1.9-1-2.9c0.3,0.1,0.5-0.2,0.6-0.3c0.6,0.4,0.2,1.3,1,1.6c0.8,0.2,1.4-0.3,1.6-1
			c0.5-1.3-0.8-2.1-1.7-2.6c-1.7-0.4-3.1,0.6-3.9,1.7c-0.6,1.2-0.1,3.2-0.2,4.3c-1.5,0.2-3.8,0.7-4.5,2.7c0,2.5-2.1,4.2-2.2,6.6
			c-0.4,1-1.8,2-1.2,3c2.7-1.1,2.4-4.4,5.1-6c0-0.4-0.1-0.8,0.3-1c1.4-0.3,2.5,1.7,4,1.9c-0.1,0.5,0.6,0.7,0.4,1.3l-0.3,0.3
			c-0.6-1-1.6-1-2.7-0.9c-1.4,3.8-4.6,6.9-6,10.7l0.3,0.3c1.4-3,4.7-4.5,5.8-7.7c2.3,1.3,4.2-1.2,6.2-0.5c-0.1,0.6,0.3,1.3-0.3,1.7
			c-0.7-0.3-1.4-0.8-2.3-0.6c-2.7,1.6-2.5,4.9-4.8,7c-0.3,1.9-0.6,3.8-0.9,5.6c0.3,0.2,0.5,0.8,1,0.6l0.6-0.6c0-0.1,0-0.1,0.1-0.2
			c-0.1-3.3,1.9-5.9,2.8-8.8c1.6-2.3,4.9,0.6,6.5-1.8c0.4,0.3,1.4,0.1,1,1c-0.6,0.9-1.2-0.3-2,0c-4.1,2.6-2.7,8-3.4,12.3l0.7,0.6
			c0.9-1.8,0.8-3.9,1.9-5.6c0-1.4-1-3.1,0.2-4.3c1.5-0.3,2.6,0.7,4-0.1c-0.1,1.9-1.1,3.8-0.2,5.6c0.9-0.8,0.8-2,1.2-3
			c1.4-1.1,3.3-1.8,4.2-3.4c0.4,0,0.8-0.1,1,0.3c-0.3,0.5-1.3,0.8-0.9,1.7c2,1.4,2.7,6.8,6,4.1c0.6,0.9,1.8,2.4,0.4,3.3
			c-1.4,2.1-3.5,0.3-4.3-1.2C81.6,79.1,82,77.3,80.6,76.3 M80.4,84.6l0-0.7l0.3-1L80.4,84.6z M78.2,71.4c-0.2,0.6-0.9,0.2-1.3,0.4
			l-0.3-0.3C77,71.3,77.7,70.8,78.2,71.4 M84.7,84.8c0,0.2,0,0.3,0,0.4c0.1,0.9,1.6,0.2,2,0.8c0.2,1.7,0,3.3-1.5,4.3
			c-0.8,0.4-1.1-0.6-1.7-0.9c-0.6-1-0.3-2.4-0.4-3.6c0.3-0.7,1.3-0.1,1.6-0.6C84.7,85.1,84.7,85,84.7,84.8 M82.6,92.7
			c2.2,1.2,3.7-1,5.6-1.4l0.7,0.7c-0.2,2.2-2.1,4.1-3.8,5.4c-1.9-0.1-1.8-2.2-2.7-3.2C82.4,93.6,82,93,82.6,92.7 M95.4,75.3
			c-1,1.9-2,4.8-4.2,5.4c-0.9-1.7-2.9-3.4-1.8-5.6C91.8,78.8,94.2,72,95.4,75.3 M84.1,70c1.4-1.6,3.7-1.1,5.6-1.8
			c1.3,0.6,1.2,2.7,3,2.2l1.6-2.7c2.9,2.1,7.6-2.2,7.6,3.5c-0.5,1.7-1.2,3.4-2.9,4.7c-2.4-1.4-2.3-4.6-3.4-6.8
			c-2.6,0.1-1.7,3.9-4.2,4.4c-1.1-1.2-1.9-2.6-2.1-4.2c-1.5,0.7-1,2.7-1.5,4c-1.2,0.9-1.5,2.9-3.2,2.7C82.9,74.2,83.2,72,84.1,70
			 M90,56c0.8-0.6,2.1-0.2,2.6-1.4c0.2-3.2-2.9-4.6-5.1-6.1c-0.4,0-0.8,0.1-1-0.3c3.3-0.3,5.4,4.4,8.6,2.1c0.9-1.5-2-2.4-0.1-3.3
			c2-0.1,3.3,1,3.7,2.9c0.1,4.6-4.8,11.4,1.3,14.1l0.3,0.3c-1.5,0.1-2,2.6-3.9,1.7c-0.9-0.6-1.5-2.2-3-1.6l-1.3,1.7
			c-1-2.6-3.7-1.1-5.3-0.2C90,63.7,90.4,59.9,90,56 M114.3,67.3c0.1,0.8-0.9,0.7-1.3,1C112.6,67.5,113.7,67.3,114.3,67.3
			 M129.6,73.6c1.7-1.3,2.9,0.9,4.6,0.6c0.5-0.4,1.5-0.6,2,0c0.3-0.6,1.1-0.2,1.6-0.4c0.9-0.1,0.9-1.1,1.3-1.7
			c-10.6-1.4-7.3-13.5-14.2-18.8c0.4-2.1,1.8-3.8,1.2-6.3c-0.8-0.8-1.1-2.7-2.7-2.2c-0.6,0.9-0.9,1.7-1.9,2.3
			c-2.5,0.6-3.9-1.6-6-2.2c-4.3,1-2.8-3.9-6.4-4.8c-1.5-0.3-4.3-1-4.9,1.1l2.4,2.6c1.1,2.5-0.3,4.8-1.2,6.9c0,2.3,1.3,3.9,2.8,5.5
			c0.6,0.9,0.1,3.1,2,2.6c1.9-0.8,2-2.7,3.2-4.4c0.6,0,0.9,0.6,1.3,1c0,2.4,3.2,3.3,2.1,6.2c-1,3.2-4.5,3.5-6.4,5.7
			c-2.4-0.3-3.8,1.8-5.9,2.4c-1.6-0.4-1.6-2.2-2.4-3.2c0.3-0.2,0.5-0.8,1-0.7c0.9-0.3,1.1-0.7,0.9-1.7c-0.9-1.3-2.3-1.6-3.7-1.9
			c-4.3-3.7,0.7-8.4,0.4-12.8c-0.4-5.5-7.2-3.4-11-4.7c-2.4,2.9-8.2-0.1-9.1,4.2c0.8,0.5-0.2,2.4,1.4,1.9c-0.1-0.5,0.4-0.7,0.6-1
			c2.6-0.6,5.7,0.4,7.3,2.8c-2.1,0.9-4.4-2.3-6.6-0.2c0.9,1.1,2.6,0.3,3.3,1.9c2.8,1.3,1.6,4.7,1.5,6.9c-0.9,3-4.1,3.4-6.1,5.1
			c-0.3,0.9,0.6,1.3,0.7,1.9c-0.9,2.6-3.5,1.2-5.2,0.8c-1.7-1.4-5.2-1.1-5-4.2c-0.9,0-1.2-1.5-2.3-0.9c-0.5-0.5-1.2-0.9-1.4-1.6
			c-1.5-1-2.7-3-1.7-4.9c2.4-3,3.1,2.6,6,1.5c-0.4-2.8,1.5-4.8,2.8-7c0.9-2.7-0.4-5.2-1.2-7.5c0.1-1.8,2.3-2.1,2.2-3.7
			c-3.3-1.6-7,1.2-7.1,4.4c-2.1,1.8-4.8,2.1-7.5,2.5c-1.4-0.4-2-2.5-3.7-2.2c-0.5,0.9-1.3,1.7-0.9,3c-0.5,2.1,0.7,3.7,2.4,4.6
			c-2.1,3.6-3.6,7.3-4.7,11.3c-2.3,4.1-6.5,5.5-10.4,6.8c0.7,2.3,3.6,2.2,5.6,2.5c1.3-0.2,3.5-1.3,4.3,0.2c-4.4,7.1-2.2,17-9.7,22.6
			l2.3,0.3c6.7-0.2,7.8-7.8,10.6-12.1l0.3,0.3c-1.5,8.9,0.8,20.2-7.7,25.5c2.1,0.9,4.2,0.9,6.2-0.1c3.9-3.2,5.4-7.9,6-12.6
			c0.8-3.3,0.6-7,2.4-9.9c1.3,1.4,0.3,3.9,1.1,5.6c-0.7,9,3,20-3.7,26.4c0.5,0.2,0.9,0.9,1.7,0.6c7.3-2.1,6.1-10.9,6.9-17.3
			c0.5-3,0-6.3,1.5-8.9c0.2,1.3,1,2.4,0.7,3.9l1,0c0.8-3.7,2.1-7.3,2.4-11.2l0.7-0.7l1,1c0.6-0.6,1.5-1.6,1.6-2.7
			c0.3,1.3,0.8,2.5,0.7,3.9c-1.6,2.4,0.8,6.3-1.8,8.3c-1.2,2.9-0.4,6.6,0.9,9.2c0.7,3.6-0.4,7.6-3.4,10c-1-0.8-1.6-1.6-1.4-2.9
			c-0.3-1.3-1.1-2-2.4-2.3c-0.2,1.3-0.7,2.6-1.6,3.7c-0.6,2,1.5,3.2,2.7,4.5c-1.3,4-8.7-1-7.1,4.8l1.6,0c3,2,4.9-2.4,7.8-2.5
			c1.6,2.3-2.7,3.9-2.2,6.6c1.7-0.3,3.5-0.6,4.6-2.4c-0.8-3.5,3.3-5.2,5.4-6.7c2.7-0.1,1.2-3,1.5-4.6c-1.2,0.2-2,1.5-3.3,1.7
			c-0.6-0.3-0.6-0.9-1-1.3c1-2.6,1.7-5.5,3.8-7.3c3.1,5,2.7,11.6,3.4,17.7c-0.4,2.2-2,0-3.3,0.7c-1.6,0.6-1,2.7-1.5,4
			c-1.3-0.7-2.7-1.1-4.3-0.9c-0.7,0.3-1.7,1-1.3,2c2.8,1,2.6,4.3,5.1,5.5c-0.2,0.4-0.6,0.3-1,0.3c-1.3,0.5-3.2,1.9-2.9,3.7
			c2.1,0,4,1.5,5.9,0.9c0.7,0,1.6-0.2,2,0.6c0.3,1.8,1.2,3.7,3.1,4.5c2-0.7,4.7-2,5.2-4.1c-0.5-3.9,3.3,0.5,5.2-1.4
			c1.2-0.3,2.7,1.5,3.3-0.1c0.2-2.7-3-3.2-3.7-5.2c1.7-0.8,2.6-3.3,4.5-3.4c0.2-0.9-0.3-1.6-0.7-2.3c-1.8-1.3-4.3-0.2-6.3,0.1
			c-1-0.9,0.5-1.6-0.1-2.6c-0.4-1.4-1.9-1.4-3-1.6c-2.2-3.5-0.4-7.9-0.6-11.8c1-2.4,0.1-6.2,3.1-7.3c4,0.8,3.1,5.4,3.8,8.5
			c-1.5,1.8-2.8-1.1-4.6-0.6l0.4,2.3c0.3,0.9,1.3,1.6,2.3,1.3c3,1.2,5.8,3,6.1,6.5c1,1.3,2.7,0.7,3.7,2.2c0.6-0.5,0.2-1.3,0.3-2
			c-0.7-1.7-3.9-2.8-2.7-4.9c2.4,1.9,5.6,3,8.6,2.4c-1-4-5.6-2.7-7.7-4.8c1.1-1.2,3-0.4,3.9-2.1c0.6-2.2-1.2-3.3-1.1-5.2
			c-3.8-0.3-1.8,4.2-4.2,5.4c-1.1-0.1-1.1-1-2-1.6c-3-6.9,2.7-12.6-1.4-19.1c1.1-3.1-1.2-7.2,0.4-10.5c1.1,0.5,1.1,2,2,2.9
			c0.5,0.1,0.6-0.5,1-0.7l0.7,0.6c0.2,3.8,1,7.4,2.2,10.8c1.1-1.4,1-3.2,1.9-4.7l0.7,0.7l1.4,19.7l1.4,3.9c1,2.3,3.5,4,6,3.8l0-0.7
			c-2.8-2.1-2.4-5.5-3.2-8.5c0.3-7.4,0.1-14.9,0.8-22.1l0.6-0.7c2.4,7.7,1.9,17,8.7,22.5c1.7,0.1,3.3,1.1,4.9,0.2l0-0.7
			c-6.4-4.1-6.8-12.6-7-20.3l0.7-0.7c0.2,0.6,0.9,0.2,1.3,0.3c1.5,1.6,2.6,3.3,3.4,5.2c1.5,2.1,3.7,3.9,6.3,3.8
			c1-0.6,2.7-0.2,2.9-1.7C130.2,93.8,134,81.4,129.6,73.6"/>
		<path class="st2" d="M27.6,109.3l0,1.3c-1.1,0.1-2.3-0.7-3.3,0.1c-1.8,2.1-3,4.5-3.8,7c2.3,1.2,3.8-1.3,5.9-1.5l1.9-2.7
			c1.3,1,1.6,3,2.4,4.6c-4.2,0-8,1.2-10.4,4.5c-1.9,0.5-1.6-1.7-2.4-2.6c-0.5-3.1,2.5-5.2,1.8-7.9c-1.5-0.5-2.5,1-3.3,1.7
			c-1.4-0.7-1.4-2.6-1.4-4.3c3.5,1.4,6.1-1.2,9.2-1.8C25.4,104.5,27.5,107.8,27.6,109.3"/>
		<path class="st2" d="M162.2,122.1c-1.2,1.2-3.5,0.4-4.2,2.1c-0.6-0.1-1.3,0.3-1.7-0.3c2.4-2.3-4-5.2,0.5-5.3
			c1.5,0.3,2-1.7,3.6-1.1C160.7,119.2,161.3,120.7,162.2,122.1"/>
		<path class="st2" d="M35.2,124.6c1.4,1.4,1.7,3.7,1.1,5.6c-1.7,3.3-6.2,3.5-7.1,7.4c-1.7,0-2.2-2.2-2.7-3.6c3-0.7,5.9-2.4,7.8-5.1
			c0.2-1.6-1.1-2.9-2.4-3.6c-3.1,0-5.9,1.2-7.5,4.1l0,0.7c-1.7-0.3-2-2.5-2.7-3.9c4.4,0,7.2-4.4,11.8-2.9L35.2,124.6z"/>
		<path class="st2" d="M160.1,130.7c-0.3,1.5-1.3,3.3-2.9,3.7c-1.3-3-4.4-5.4-7.7-5.4c-0.8,0.9-1.9,1.8-1.9,3
			c1.3,3.1,4.6,5.3,7.7,5.8c-0.6,1.2-1.1,2.7-2.6,3.3c-0.4-0.4-1.4-0.4-1-1.3c-2.6-3-8.8-5.4-6.5-10.4c1.2-1.6,2.7-2.5,4.5-2.7
			C153.9,126.3,156.1,130.7,160.1,130.7"/>
		<path class="st2" d="M41.8,137.9c-0.8,2.1,0.1,3.9-0.2,5.9c-1.8,0.2-3.2-1.8-5-0.5l-1.3-0.6c3-1.7-2.4-7.7,3.2-5
			C39.8,138.3,40.8,136.4,41.8,137.9"/>
		<path class="st2" d="M138.9,138.4c-1.2,3.3,2,5.4,3.8,7.8c1.2,1.2,1.9-0.8,2.9-1c1.8-0.5-0.2-4,2.2-2.7c0.8,0.7,1.6,1.4,1.4,2.6
			c-3.5,2.8-6.2,5.3-9.7,8.1c-1.7,0.8-1.8-1.2-2.7-1.9c1.4-0.5,3.5-1.2,4.2-3.1c-2.4-2.1-3.3-6.4-7.1-6.4c0.6-1.5,2.6-2.5,3.9-3.7
			L138.9,138.4z"/>
		<path class="st2" d="M58.1,148.4c-0.9,1-2.3,2.5-3.9,2.7c0.2-1.8-1.2-2.7-2.4-3.9c-1-0.4-1.4,0-2.3,0.4c-1.6,3.9,6.3,6.7,1.2,10.2
			c-2.1,0.2-4.1,0.1-5.3-1.9c0.9-2.5-5.6-5-0.5-5.9c1.8,0.4,1.8,6.4,4.4,3.5c-1.2-2.2-3.3-4.5-2.5-7.2c0.6-1.3,1.9-2.3,3.2-2.4
			C53.8,143.5,54.9,148.4,58.1,148.4"/>
		<path class="st2" d="M129.5,145.9c-0.4,3.3,2,6.2,4.2,8.8c0.6,0.6,2.7-0.1,2,1.6c-1.5,0.7-2.7,2.1-4.6,2.1c-1-3.7-2.4-7.8-6.1-9.7
			C125.6,146.9,127.8,146.3,129.5,145.9"/>
		<path class="st2" d="M64.8,151.6c0.4,0.9-0.6,0.7-1,1c-2,2.9-5.1,5.8-3.7,9.6c-2,0.5-3.2-1.1-4.7-1.9c-0.3-1,1.1-0.8,1.6-1.4
			c1.4-3,5.1-5.8,3.1-9.3C62,149.4,63.1,151.4,64.8,151.6"/>
		<path class="st2" d="M121.7,150.6c-0.1,3.6,1.6,7.8,4.8,9.8c0.1,1.9-2.1,1.3-2.9,2.4c-2.7-0.1-4.9-1.6-7.3-2.5
			c-1.5,1,0.1,2.4,0.1,3.6c0.4,0.4,1,0.4,1.3,1c-1.4,0.8-2.7,1.6-4.6,1.4c0.4-4.1-1.4-8.4-3.9-11.4c1.3-0.6,3.1-1.7,4.9-1.8
			c0.2,1.5-0.8,3.9,1.8,4.6c1.6,0.8,3.4,2.4,5.3,1.5c-0.6-2.5-1.3-5.4-3.8-6.8C118.4,151.3,120,149.5,121.7,150.6"/>
		<path class="st2" d="M77.4,155.9c0.2,1.2-0.6,2.3-1.6,2.7c-1.8-0.7-3.1-2.5-5.3-2.2c-0.3,0.7-1,1.6-0.3,2.3
			c1.7,2.1,4.9,2.3,5.4,5.1c0.1,1.8-1.1,2.8-2.6,3.4c-3.8,0.5-6-3.2-9.6-3.1c-0.2-0.9,0.9-1.7,1.6-2c2.3-0.4,5.2,5.3,6.3,0.8
			c-1.6-2.7-7.3-4.1-4.8-8.1c1.5-2.1,4.3-1.2,6.2-0.8C74.4,154.3,75.3,156.7,77.4,155.9"/>
		<path class="st2" d="M85,157c0.2,1.2-1.6,1.6-0.9,3c1.3,1.6,2.6,3.8,4.7,4.5c1.2-1.5,0.4-3.7,0.5-5.6c-0.6-0.6-1.3-1-1-1.9
			c1.8-0.3,3.3,0.4,5,0.5c-2.9,2.6-1.2,7.3-1.1,10.6l1,1c-4.9,3.2-6.1-3.6-9.3-5.1c-1.2,0.9-1.1,2.8-0.6,4l0.3,0.3
			c-1.6,0.7-3.6,0-5.3-0.2c0-0.7,1.4-1.4,1.6-2.3c0-3.2,1.1-6.4,0.1-9.6C81.9,156,83.5,156.3,85,157"/>
		<path class="st2" d="M106.4,155.9c-0.7,4.1,0,8.3,2.2,11.5l-1,0.7l-10.2,1.2c-1.2-0.5-0.5-1.8-0.7-2.6c0.8-0.3,2.1,0.3,3,0.9
			c1.6-0.7,3.8,0.1,4.9-1.8c0-1.2,0-2.6-1.4-2.9c-1.1,0.8-1.1,2-2.6,2c-0.8-1.3-0.9-3.4-0.4-4.9l1,0c0,0.6,0.7,0.9,1,1.3
			c0.6,0.2,0.9-0.3,1.3-0.7c0.1-1,0-2-1-2.6c-1.8,0.8-4.8-0.3-5.5,2.4l-0.7,0l-0.1-3.3C99.7,157,102.6,155.4,106.4,155.9"/>
		<path class="st2" d="M91.4,28.1c-0.7,0-1.3-0.6-1.3-1.3c0-0.7,0.6-1.3,1.3-1.4c0.2,0,0.5,0,0.7,0c0.1,0,0.3,0,0.4,0
			c0.7,0,1.3,0.6,1.3,1.3c0,0.7-0.6,1.3-1.3,1.3h0c-0.1,0-0.2,0-0.4,0C91.9,28.1,91.7,28.1,91.4,28.1L91.4,28.1z M97.2,28.3
			c0,0-0.1,0-0.1,0c-0.2,0-0.4,0-0.7,0c-0.7-0.1-1.3-0.7-1.2-1.4c0.1-0.7,0.7-1.3,1.4-1.2c0.2,0,0.5,0,0.7,0.1
			c0.7,0.1,1.3,0.7,1.2,1.4C98.4,27.7,97.9,28.3,97.2,28.3 M86.8,28.3c-0.7,0-1.3-0.5-1.3-1.2c-0.1-0.7,0.5-1.4,1.2-1.4
			c0.2,0,0.5,0,0.7-0.1c0.7-0.1,1.4,0.5,1.4,1.2c0.1,0.7-0.5,1.4-1.2,1.4c-0.2,0-0.4,0-0.7,0.1C86.8,28.3,86.8,28.3,86.8,28.3
			 M101.8,28.8c-0.1,0-0.1,0-0.2,0c-0.2,0-0.4-0.1-0.6-0.1c-0.7-0.1-1.2-0.8-1.1-1.5c0.1-0.7,0.8-1.2,1.5-1.1c0.2,0,0.5,0.1,0.7,0.1
			c0.7,0.1,1.2,0.8,1.1,1.5C103,28.3,102.5,28.8,101.8,28.8 M82.1,28.8c-0.6,0-1.2-0.5-1.3-1.1c-0.1-0.7,0.4-1.4,1.1-1.5
			c0.2,0,0.5-0.1,0.7-0.1c0.7-0.1,1.4,0.4,1.5,1.1c0.1,0.7-0.4,1.4-1.1,1.5c-0.2,0-0.4,0.1-0.6,0.1C82.2,28.8,82.2,28.8,82.1,28.8
			 M106.4,29.7c-0.1,0-0.2,0-0.3,0c-0.2,0-0.4-0.1-0.6-0.1c-0.7-0.2-1.2-0.9-1-1.6c0.2-0.7,0.9-1.2,1.6-1c0.2,0,0.4,0.1,0.7,0.2
			c0.7,0.2,1.2,0.9,1,1.6C107.6,29.3,107,29.7,106.4,29.7 M77.5,29.8c-0.6,0-1.2-0.4-1.3-1c-0.2-0.7,0.3-1.4,1-1.6
			c0.2-0.1,0.4-0.1,0.7-0.2c0.7-0.2,1.4,0.3,1.6,1s-0.3,1.4-1,1.6c-0.2,0-0.4,0.1-0.6,0.1C77.7,29.7,77.6,29.8,77.5,29.8
			 M110.9,30.9c-0.1,0-0.3,0-0.4-0.1c-0.2-0.1-0.4-0.1-0.6-0.2c-0.7-0.2-1.1-1-0.9-1.7c0.2-0.7,1-1.1,1.7-0.9
			c0.2,0.1,0.4,0.1,0.7,0.2c0.7,0.2,1.1,1,0.9,1.7C112,30.5,111.5,30.9,110.9,30.9 M73,31c-0.6,0-1.1-0.4-1.3-0.9
			c-0.2-0.7,0.2-1.5,0.9-1.7c0.2-0.1,0.4-0.1,0.7-0.2c0.7-0.2,1.5,0.2,1.7,0.9c0.2,0.7-0.2,1.5-0.9,1.7c-0.2,0.1-0.4,0.1-0.6,0.2
			C73.3,31,73.1,31,73,31 M115.4,32.5c-0.2,0-0.3,0-0.5-0.1c-0.2-0.1-0.4-0.2-0.6-0.2c-0.7-0.3-1-1-0.8-1.7c0.3-0.7,1-1,1.7-0.8
			c0.2,0.1,0.4,0.2,0.6,0.2c0.7,0.3,1,1,0.8,1.7C116.4,32.1,115.9,32.5,115.4,32.5 M68.6,32.6c-0.5,0-1-0.3-1.2-0.8
			C67,31,67.4,30.3,68.1,30c0.2-0.1,0.4-0.2,0.6-0.3c0.7-0.3,1.5,0.1,1.7,0.8c0.3,0.7-0.1,1.5-0.8,1.7c-0.2,0.1-0.4,0.2-0.6,0.2
			C68.9,32.5,68.7,32.6,68.6,32.6 M119.7,34.3c-0.2,0-0.4,0-0.6-0.1c-0.2-0.1-0.4-0.2-0.6-0.3c-0.7-0.3-1-1.1-0.6-1.8
			c0.3-0.7,1.1-1,1.8-0.6c0.2,0.1,0.4,0.2,0.6,0.3c0.7,0.3,0.9,1.1,0.6,1.8C120.6,34.1,120.1,34.3,119.7,34.3 M64.3,34.5
			c-0.5,0-1-0.3-1.2-0.8c-0.3-0.7,0-1.5,0.6-1.8c0.2-0.1,0.4-0.2,0.6-0.3c0.7-0.3,1.5,0,1.8,0.6c0.3,0.7,0,1.5-0.6,1.8
			c-0.2,0.1-0.4,0.2-0.6,0.3C64.7,34.4,64.5,34.5,64.3,34.5 M123.8,36.5c-0.2,0-0.5-0.1-0.7-0.2c-0.2-0.1-0.4-0.2-0.6-0.3
			c-0.6-0.4-0.9-1.2-0.5-1.8c0.4-0.6,1.2-0.9,1.8-0.5c0.2,0.1,0.4,0.2,0.6,0.3c0.6,0.4,0.9,1.2,0.5,1.8
			C124.7,36.3,124.3,36.5,123.8,36.5 M60.1,36.7c-0.5,0-0.9-0.2-1.2-0.7c-0.4-0.6-0.2-1.5,0.5-1.8c0.2-0.1,0.4-0.2,0.6-0.3
			c0.6-0.4,1.5-0.1,1.8,0.5c0.4,0.6,0.1,1.5-0.5,1.8c-0.2,0.1-0.4,0.2-0.6,0.3C60.6,36.6,60.4,36.7,60.1,36.7 M127.8,39
			c-0.3,0-0.5-0.1-0.8-0.2c-0.2-0.1-0.4-0.2-0.5-0.4c-0.6-0.4-0.8-1.2-0.4-1.9c0.4-0.6,1.2-0.8,1.9-0.4c0.2,0.1,0.4,0.3,0.6,0.4
			c0.6,0.4,0.8,1.2,0.4,1.9C128.6,38.8,128.2,39,127.8,39 M56.2,39.2c-0.4,0-0.8-0.2-1.1-0.6c-0.4-0.6-0.3-1.4,0.3-1.9
			c0.2-0.1,0.4-0.3,0.6-0.4c0.6-0.4,1.4-0.3,1.9,0.4c0.4,0.6,0.3,1.4-0.4,1.9c-0.2,0.1-0.4,0.2-0.5,0.4
			C56.7,39.1,56.4,39.2,56.2,39.2 M131.5,41.8c-0.3,0-0.6-0.1-0.8-0.3c-0.2-0.1-0.3-0.3-0.5-0.4c-0.6-0.5-0.7-1.3-0.2-1.9
			c0.5-0.6,1.3-0.7,1.9-0.2c0.2,0.1,0.4,0.3,0.5,0.4c0.6,0.5,0.7,1.3,0.2,1.9C132.3,41.6,131.9,41.8,131.5,41.8 M52.4,42
			c-0.4,0-0.8-0.2-1-0.5c-0.5-0.6-0.4-1.4,0.2-1.9c0.2-0.1,0.4-0.3,0.5-0.4c0.6-0.5,1.4-0.4,1.9,0.2c0.5,0.6,0.4,1.4-0.2,1.9
			c-0.2,0.1-0.3,0.3-0.5,0.4C53,41.9,52.7,42,52.4,42 M135.1,44.8c-0.3,0-0.6-0.1-0.9-0.4c-0.2-0.1-0.3-0.3-0.5-0.4
			c-0.5-0.5-0.6-1.3-0.1-1.9c0.5-0.5,1.3-0.6,1.9-0.1c0.2,0.2,0.3,0.3,0.5,0.5c0.5,0.5,0.6,1.3,0.1,1.9
			C135.8,44.7,135.4,44.8,135.1,44.8 M48.9,45.1c-0.4,0-0.7-0.1-1-0.4c-0.5-0.5-0.5-1.4,0.1-1.9c0.2-0.2,0.3-0.3,0.5-0.5
			c0.5-0.5,1.4-0.5,1.9,0.1c0.5,0.5,0.5,1.4-0.1,1.9c-0.2,0.1-0.3,0.3-0.5,0.4C49.5,45,49.2,45.1,48.9,45.1 M138.4,48.1
			c-0.4,0-0.7-0.1-1-0.4c-0.1-0.2-0.3-0.3-0.5-0.5c-0.5-0.5-0.5-1.4,0-1.9c0.5-0.5,1.4-0.5,1.9,0c0.2,0.2,0.3,0.3,0.5,0.5
			c0.5,0.5,0.5,1.4-0.1,1.9C139.1,48,138.7,48.1,138.4,48.1 M45.6,48.4c-0.3,0-0.7-0.1-0.9-0.4c-0.5-0.5-0.6-1.4-0.1-1.9
			c0.2-0.2,0.3-0.3,0.5-0.5c0.5-0.5,1.4-0.6,1.9-0.1c0.5,0.5,0.6,1.4,0.1,1.9c-0.2,0.2-0.3,0.3-0.4,0.5
			C46.3,48.2,45.9,48.4,45.6,48.4 M141.5,51.7c-0.4,0-0.8-0.2-1-0.5c-0.1-0.2-0.3-0.3-0.4-0.5c-0.5-0.6-0.4-1.4,0.2-1.9
			c0.6-0.5,1.4-0.4,1.9,0.2c0.1,0.2,0.3,0.4,0.4,0.5c0.5,0.6,0.4,1.4-0.2,1.9C142.1,51.6,141.8,51.7,141.5,51.7 M42.5,51.9
			c-0.3,0-0.6-0.1-0.8-0.3c-0.6-0.5-0.7-1.3-0.2-1.9c0.1-0.2,0.3-0.4,0.4-0.5c0.5-0.6,1.3-0.7,1.9-0.2c0.6,0.5,0.7,1.3,0.2,1.9
			c-0.1,0.2-0.3,0.3-0.4,0.5C43.3,51.8,42.9,51.9,42.5,51.9 M144.3,55.4c-0.4,0-0.8-0.2-1.1-0.6c-0.1-0.2-0.3-0.4-0.4-0.5
			c-0.4-0.6-0.3-1.4,0.3-1.9c0.6-0.4,1.4-0.3,1.9,0.3c0.1,0.2,0.3,0.4,0.4,0.6c0.4,0.6,0.3,1.4-0.3,1.9
			C144.8,55.3,144.6,55.4,144.3,55.4 M39.7,55.7c-0.3,0-0.5-0.1-0.8-0.2c-0.6-0.4-0.8-1.3-0.3-1.9c0.1-0.2,0.3-0.4,0.4-0.6
			c0.4-0.6,1.3-0.8,1.9-0.3c0.6,0.4,0.8,1.3,0.3,1.9c-0.1,0.2-0.2,0.4-0.4,0.5C40.6,55.5,40.1,55.7,39.7,55.7 M146.8,59.4
			c-0.5,0-0.9-0.2-1.2-0.7c-0.1-0.2-0.2-0.4-0.3-0.6c-0.4-0.6-0.2-1.5,0.5-1.8c0.6-0.4,1.5-0.2,1.8,0.5c0.1,0.2,0.2,0.4,0.4,0.6
			c0.4,0.6,0.2,1.5-0.5,1.8C147.3,59.3,147.1,59.4,146.8,59.4 M37.2,59.7c-0.2,0-0.5-0.1-0.7-0.2c-0.6-0.4-0.9-1.2-0.5-1.8
			c0.1-0.2,0.2-0.4,0.3-0.6c0.4-0.6,1.2-0.8,1.8-0.5c0.6,0.4,0.8,1.2,0.5,1.8c-0.1,0.2-0.2,0.4-0.3,0.6
			C38.1,59.4,37.7,59.7,37.2,59.7 M149.1,63.5c-0.5,0-1-0.3-1.2-0.7c-0.1-0.2-0.2-0.4-0.3-0.6c-0.3-0.7-0.1-1.5,0.6-1.8
			c0.7-0.3,1.5-0.1,1.8,0.6c0.1,0.2,0.2,0.4,0.3,0.6c0.3,0.7,0.1,1.5-0.6,1.8C149.5,63.5,149.3,63.5,149.1,63.5 M35,63.8
			c-0.2,0-0.4,0-0.6-0.1c-0.7-0.3-0.9-1.1-0.6-1.8c0.1-0.2,0.2-0.4,0.3-0.6c0.3-0.7,1.1-0.9,1.8-0.6c0.7,0.3,0.9,1.1,0.6,1.8
			c-0.1,0.2-0.2,0.4-0.3,0.6C36,63.5,35.5,63.8,35,63.8 M151,67.8c-0.5,0-1-0.3-1.2-0.8c-0.1-0.2-0.2-0.4-0.2-0.6
			c-0.3-0.7,0-1.5,0.7-1.8c0.7-0.3,1.5,0,1.8,0.7c0.1,0.2,0.2,0.4,0.3,0.6c0.3,0.7-0.1,1.5-0.7,1.7C151.3,67.8,151.1,67.8,151,67.8
			 M33.1,68.1c-0.2,0-0.3,0-0.5-0.1c-0.7-0.3-1-1.1-0.7-1.7c0.1-0.2,0.2-0.4,0.3-0.6c0.3-0.7,1.1-1,1.7-0.7c0.7,0.3,1,1.1,0.7,1.7
			c-0.1,0.2-0.2,0.4-0.2,0.6C34.2,67.7,33.7,68.1,33.1,68.1 M152.6,72.2c-0.6,0-1.1-0.4-1.3-0.9c-0.1-0.2-0.1-0.4-0.2-0.6
			c-0.2-0.7,0.1-1.5,0.9-1.7c0.7-0.2,1.5,0.1,1.7,0.9c0.1,0.2,0.1,0.4,0.2,0.7c0.2,0.7-0.2,1.5-0.9,1.7
			C152.8,72.2,152.7,72.2,152.6,72.2 M31.5,72.5c-0.1,0-0.3,0-0.4-0.1c-0.7-0.2-1.1-1-0.9-1.7c0.1-0.2,0.1-0.4,0.2-0.7
			c0.2-0.7,1-1.1,1.7-0.9c0.7,0.2,1.1,1,0.9,1.7c-0.1,0.2-0.1,0.4-0.2,0.6C32.6,72.1,32.1,72.5,31.5,72.5 M153.8,76.7
			c-0.6,0-1.2-0.4-1.3-1c-0.1-0.2-0.1-0.4-0.2-0.6c-0.2-0.7,0.3-1.4,1-1.6s1.4,0.3,1.6,1c0.1,0.2,0.1,0.4,0.2,0.7
			c0.2,0.7-0.3,1.4-1,1.6C154,76.7,153.9,76.7,153.8,76.7 M30.3,77c-0.1,0-0.2,0-0.3,0c-0.7-0.2-1.2-0.9-1-1.6
			c0.1-0.2,0.1-0.4,0.2-0.7c0.2-0.7,0.9-1.2,1.6-1c0.7,0.2,1.2,0.9,1,1.6c-0.1,0.2-0.1,0.4-0.2,0.6C31.5,76.6,30.9,77,30.3,77
			 M154.7,81.3c-0.6,0-1.2-0.5-1.3-1.1c0-0.2-0.1-0.4-0.1-0.6c-0.1-0.7,0.4-1.4,1.1-1.5c0.7-0.1,1.4,0.4,1.5,1.1
			c0,0.2,0.1,0.4,0.1,0.7c0.1,0.7-0.4,1.4-1.1,1.5C154.9,81.3,154.8,81.3,154.7,81.3 M29.4,81.6c-0.1,0-0.1,0-0.2,0
			c-0.7-0.1-1.2-0.8-1.1-1.5c0-0.2,0.1-0.5,0.1-0.7c0.1-0.7,0.8-1.2,1.5-1.1c0.7,0.1,1.2,0.8,1.1,1.5c0,0.2-0.1,0.4-0.1,0.6
			C30.6,81.1,30.1,81.6,29.4,81.6 M155.3,86c-0.7,0-1.3-0.5-1.3-1.2c0-0.2,0-0.4-0.1-0.7c-0.1-0.7,0.5-1.4,1.2-1.5
			c0.7-0.1,1.4,0.5,1.5,1.2c0,0.2,0,0.5,0.1,0.7c0.1,0.7-0.5,1.4-1.2,1.5C155.4,86,155.4,86,155.3,86 M28.9,86.3c0,0-0.1,0-0.1,0
			c-0.7-0.1-1.3-0.7-1.2-1.4c0-0.2,0-0.5,0.1-0.7c0.1-0.7,0.7-1.3,1.5-1.2c0.7,0.1,1.3,0.7,1.2,1.5c0,0.2,0,0.4-0.1,0.7
			C30.1,85.7,29.5,86.3,28.9,86.3 M155.6,90.6c-0.7,0-1.3-0.6-1.3-1.3c0-0.2,0-0.4,0-0.7c0-0.7,0.6-1.4,1.3-1.4c0,0,0,0,0,0
			c0.7,0,1.3,0.6,1.3,1.3c0,0.2,0,0.5,0,0.7C156.9,90,156.3,90.6,155.6,90.6L155.6,90.6z M28.6,90.9C28.6,90.9,28.6,90.9,28.6,90.9
			c-0.8,0-1.3-0.6-1.3-1.4c0-0.2,0-0.5,0-0.7c0-0.7,0.6-1.3,1.4-1.3c0.7,0,1.3,0.6,1.3,1.4c0,0.2,0,0.4,0,0.7
			C30,90.3,29.4,90.9,28.6,90.9 M155.5,95.3C155.4,95.3,155.4,95.3,155.5,95.3c-0.8,0-1.4-0.7-1.3-1.4c0-0.2,0-0.4,0-0.7
			c0-0.7,0.7-1.3,1.4-1.3c0.7,0,1.3,0.7,1.3,1.4c0,0.2,0,0.5,0,0.7C156.7,94.8,156.2,95.3,155.5,95.3 M28.8,95.6
			c-0.7,0-1.3-0.5-1.3-1.3c0-0.2,0-0.5,0-0.7c0-0.7,0.5-1.4,1.3-1.4c0.7,0,1.4,0.5,1.4,1.3c0,0.2,0,0.4,0,0.7
			C30.2,94.9,29.6,95.6,28.8,95.6C28.8,95.6,28.8,95.6,28.8,95.6 M155,100c-0.1,0-0.1,0-0.2,0c-0.7-0.1-1.2-0.8-1.2-1.5
			c0-0.2,0.1-0.4,0.1-0.7c0.1-0.7,0.8-1.3,1.5-1.2c0.7,0.1,1.3,0.8,1.2,1.5c0,0.2-0.1,0.5-0.1,0.7C156.2,99.5,155.7,100,155,100
			 M29.2,100.3c-0.7,0-1.2-0.5-1.3-1.2c0-0.2-0.1-0.5-0.1-0.7c-0.1-0.7,0.4-1.4,1.2-1.5c0.7-0.1,1.4,0.4,1.5,1.2
			c0,0.2,0.1,0.4,0.1,0.7c0.1,0.7-0.4,1.4-1.1,1.5C29.4,100.3,29.3,100.3,29.2,100.3 M154.2,104.6c-0.1,0-0.2,0-0.3,0
			c-0.7-0.2-1.2-0.9-1-1.6c0-0.2,0.1-0.4,0.1-0.6c0.1-0.7,0.8-1.2,1.6-1.1c0.7,0.1,1.2,0.8,1.1,1.6c0,0.2-0.1,0.4-0.1,0.7
			C155.4,104.2,154.8,104.6,154.2,104.6 M30.1,104.9c-0.6,0-1.2-0.4-1.3-1.1c0-0.2-0.1-0.4-0.1-0.7c-0.1-0.7,0.3-1.4,1-1.6
			c0.7-0.1,1.4,0.3,1.6,1c0,0.2,0.1,0.4,0.1,0.6c0.2,0.7-0.3,1.4-1,1.6C30.2,104.9,30.1,104.9,30.1,104.9 M153.1,109.2
			c-0.1,0-0.2,0-0.4-0.1c-0.7-0.2-1.1-0.9-0.9-1.7c0.1-0.2,0.1-0.4,0.2-0.6c0.2-0.7,0.9-1.1,1.6-0.9c0.7,0.2,1.1,0.9,0.9,1.6
			c-0.1,0.2-0.1,0.4-0.2,0.7C154.2,108.8,153.7,109.2,153.1,109.2 M31.2,109.4c-0.6,0-1.1-0.4-1.3-1c-0.1-0.2-0.1-0.4-0.2-0.7
			c-0.2-0.7,0.2-1.5,0.9-1.7c0.7-0.2,1.5,0.2,1.7,0.9c0.1,0.2,0.1,0.4,0.2,0.6c0.2,0.7-0.2,1.5-0.9,1.7
			C31.5,109.4,31.3,109.4,31.2,109.4 M151.6,113.6c-0.2,0-0.3,0-0.5-0.1c-0.7-0.3-1-1-0.8-1.7c0.1-0.2,0.2-0.4,0.2-0.6
			c0.3-0.7,1-1.1,1.7-0.8c0.7,0.3,1.1,1,0.8,1.7c-0.1,0.2-0.2,0.4-0.2,0.6C152.7,113.3,152.2,113.6,151.6,113.6 M32.7,113.9
			c-0.5,0-1.1-0.3-1.3-0.9c-0.1-0.2-0.2-0.4-0.2-0.6c-0.3-0.7,0.1-1.5,0.8-1.7c0.7-0.3,1.5,0.1,1.7,0.8c0.1,0.2,0.2,0.4,0.2,0.6
			c0.3,0.7-0.1,1.5-0.8,1.7C33,113.9,32.8,113.9,32.7,113.9 M149.8,117.9c-0.2,0-0.4,0-0.6-0.1c-0.7-0.3-1-1.1-0.7-1.8
			c0.1-0.2,0.2-0.4,0.3-0.6c0.3-0.7,1.1-1,1.8-0.7c0.7,0.3,1,1.1,0.7,1.8c-0.1,0.2-0.2,0.4-0.3,0.6
			C150.8,117.6,150.3,117.9,149.8,117.9 M34.5,118.2c-0.5,0-1-0.3-1.2-0.8c-0.1-0.2-0.2-0.4-0.3-0.6c-0.3-0.7,0-1.5,0.7-1.8
			c0.7-0.3,1.5,0,1.8,0.7c0.1,0.2,0.2,0.4,0.3,0.6c0.3,0.7,0,1.5-0.7,1.8C34.9,118.2,34.7,118.2,34.5,118.2 M147.7,122.1
			c-0.2,0-0.4-0.1-0.6-0.2c-0.6-0.4-0.9-1.2-0.5-1.8c0.1-0.2,0.2-0.4,0.3-0.6c0.3-0.7,1.2-0.9,1.8-0.5c0.7,0.4,0.9,1.2,0.5,1.8
			c-0.1,0.2-0.2,0.4-0.3,0.6C148.6,121.9,148.2,122.1,147.7,122.1 M36.6,122.4c-0.5,0-0.9-0.2-1.2-0.7c-0.1-0.2-0.2-0.4-0.3-0.6
			c-0.4-0.6-0.1-1.5,0.5-1.8c0.6-0.4,1.5-0.1,1.8,0.5c0.1,0.2,0.2,0.4,0.3,0.6c0.4,0.6,0.1,1.5-0.5,1.8
			C37.1,122.3,36.9,122.4,36.6,122.4 M145.3,126.1c-0.3,0-0.5-0.1-0.7-0.2c-0.6-0.4-0.8-1.2-0.4-1.9c0.1-0.2,0.2-0.4,0.4-0.5
			c0.4-0.6,1.2-0.8,1.8-0.4c0.6,0.4,0.8,1.2,0.4,1.8c-0.1,0.2-0.2,0.4-0.4,0.6C146.2,125.9,145.7,126.1,145.3,126.1 M39.1,126.4
			c-0.4,0-0.9-0.2-1.1-0.6c-0.1-0.2-0.3-0.4-0.4-0.6c-0.4-0.6-0.2-1.5,0.4-1.9c0.6-0.4,1.5-0.2,1.9,0.4c0.1,0.2,0.2,0.4,0.4,0.5
			c0.4,0.6,0.2,1.4-0.4,1.9C39.6,126.3,39.3,126.4,39.1,126.4 M142.6,129.9c-0.3,0-0.6-0.1-0.8-0.3c-0.6-0.4-0.7-1.3-0.3-1.9
			c0.1-0.2,0.3-0.3,0.4-0.5c0.4-0.6,1.3-0.7,1.9-0.3c0.6,0.4,0.7,1.3,0.3,1.9c-0.1,0.2-0.3,0.4-0.4,0.5
			C143.4,129.8,143,129.9,142.6,129.9 M41.8,130.2c-0.4,0-0.8-0.2-1.1-0.5c-0.1-0.2-0.3-0.4-0.4-0.5c-0.4-0.6-0.3-1.4,0.3-1.9
			c0.6-0.4,1.4-0.3,1.9,0.3c0.1,0.2,0.3,0.3,0.4,0.5c0.5,0.6,0.3,1.4-0.2,1.9C42.4,130.1,42.1,130.2,41.8,130.2 M139.6,133.6
			c-0.3,0-0.6-0.1-0.9-0.3c-0.6-0.5-0.6-1.3-0.1-1.9c0.1-0.2,0.3-0.3,0.4-0.5c0.5-0.6,1.3-0.6,1.9-0.1c0.6,0.5,0.6,1.3,0.1,1.9
			c-0.1,0.2-0.3,0.3-0.4,0.5C140.4,133.4,140,133.6,139.6,133.6 M44.8,133.8c-0.4,0-0.7-0.2-1-0.4c-0.2-0.2-0.3-0.3-0.5-0.5
			c-0.5-0.6-0.4-1.4,0.1-1.9c0.6-0.5,1.4-0.4,1.9,0.1c0.1,0.2,0.3,0.3,0.4,0.5c0.5,0.6,0.4,1.4-0.1,1.9
			C45.4,133.7,45.1,133.8,44.8,133.8 M136.4,137c-0.3,0-0.7-0.1-1-0.4c-0.5-0.5-0.5-1.4,0-1.9c0.2-0.2,0.3-0.3,0.5-0.5
			c0.5-0.5,1.4-0.5,1.9,0c0.5,0.5,0.5,1.4,0,1.9c-0.2,0.2-0.3,0.3-0.5,0.5C137.1,136.8,136.7,137,136.4,137 M48,137.2
			c-0.3,0-0.7-0.1-0.9-0.4c-0.2-0.2-0.3-0.3-0.5-0.5c-0.5-0.5-0.5-1.4,0-1.9c0.5-0.5,1.4-0.5,1.9,0c0.2,0.2,0.3,0.3,0.5,0.5
			c0.5,0.5,0.5,1.4,0,1.9C48.7,137.1,48.4,137.2,48,137.2 M132.9,140.1c-0.4,0-0.8-0.2-1-0.5c-0.5-0.6-0.4-1.4,0.2-1.9
			c0.2-0.1,0.3-0.3,0.5-0.4c0.6-0.5,1.4-0.4,1.9,0.1c0.5,0.6,0.4,1.4-0.1,1.9c-0.2,0.1-0.3,0.3-0.5,0.4
			C133.5,140,133.2,140.1,132.9,140.1 M51.5,140.3c-0.3,0-0.6-0.1-0.9-0.3c-0.2-0.1-0.3-0.3-0.5-0.4c-0.6-0.5-0.6-1.3-0.2-1.9
			c0.5-0.6,1.3-0.6,1.9-0.2c0.2,0.1,0.3,0.3,0.5,0.4c0.6,0.5,0.6,1.3,0.2,1.9C52.3,140.2,51.9,140.3,51.5,140.3 M129.2,143
			c-0.4,0-0.8-0.2-1.1-0.6c-0.4-0.6-0.3-1.4,0.3-1.9c0.2-0.1,0.4-0.3,0.5-0.4c0.6-0.4,1.4-0.3,1.9,0.3c0.4,0.6,0.3,1.4-0.3,1.9
			c-0.2,0.1-0.4,0.3-0.6,0.4C129.8,142.9,129.5,143,129.2,143 M55.2,143.2c-0.3,0-0.5-0.1-0.8-0.3c-0.2-0.1-0.4-0.3-0.6-0.4
			c-0.6-0.4-0.7-1.3-0.3-1.9c0.4-0.6,1.3-0.7,1.9-0.3c0.2,0.1,0.4,0.3,0.5,0.4c0.6,0.4,0.7,1.3,0.3,1.9
			C56.1,143,55.7,143.2,55.2,143.2 M125.3,145.6c-0.4,0-0.9-0.2-1.1-0.6c-0.4-0.6-0.2-1.5,0.4-1.8c0.2-0.1,0.4-0.2,0.6-0.3
			c0.6-0.4,1.5-0.2,1.8,0.4c0.4,0.6,0.2,1.5-0.4,1.8c-0.2,0.1-0.4,0.2-0.6,0.4C125.8,145.5,125.6,145.6,125.3,145.6 M59.1,145.8
			c-0.2,0-0.5-0.1-0.7-0.2c-0.2-0.1-0.4-0.2-0.6-0.4c-0.6-0.4-0.8-1.2-0.4-1.8c0.4-0.6,1.2-0.8,1.8-0.4c0.2,0.1,0.4,0.2,0.6,0.3
			c0.6,0.4,0.8,1.2,0.4,1.8C60,145.5,59.6,145.8,59.1,145.8 M121.3,147.9c-0.5,0-1-0.3-1.2-0.7c-0.3-0.7-0.1-1.5,0.6-1.8
			c0.2-0.1,0.4-0.2,0.6-0.3c0.7-0.3,1.5-0.1,1.8,0.6c0.3,0.7,0.1,1.5-0.6,1.8c-0.2,0.1-0.4,0.2-0.6,0.3
			C121.7,147.9,121.5,147.9,121.3,147.9 M63.2,148.1c-0.2,0-0.4,0-0.6-0.1c-0.2-0.1-0.4-0.2-0.6-0.3c-0.7-0.3-0.9-1.2-0.6-1.8
			c0.3-0.7,1.2-0.9,1.8-0.6c0.2,0.1,0.4,0.2,0.6,0.3c0.7,0.3,0.9,1.1,0.6,1.8C64.2,147.8,63.7,148.1,63.2,148.1 M117,149.9
			c-0.5,0-1-0.3-1.2-0.8c-0.3-0.7,0-1.5,0.7-1.8c0.2-0.1,0.4-0.2,0.6-0.3c0.7-0.3,1.5,0,1.8,0.7c0.3,0.7,0,1.5-0.7,1.8
			c-0.2,0.1-0.4,0.2-0.6,0.3C117.4,149.9,117.2,149.9,117,149.9 M67.5,150c-0.2,0-0.3,0-0.5-0.1c-0.2-0.1-0.4-0.2-0.6-0.3
			c-0.7-0.3-1-1.1-0.7-1.8c0.3-0.7,1.1-1,1.8-0.7c0.2,0.1,0.4,0.2,0.6,0.3c0.7,0.3,1,1.1,0.7,1.8C68.5,149.7,68,150,67.5,150
			 M112.6,151.6c-0.6,0-1.1-0.4-1.3-0.9c-0.2-0.7,0.1-1.5,0.8-1.7c0.2-0.1,0.4-0.1,0.6-0.2c0.7-0.2,1.5,0.1,1.7,0.8
			c0.2,0.7-0.1,1.5-0.8,1.7c-0.2,0.1-0.4,0.2-0.6,0.2C112.9,151.6,112.8,151.6,112.6,151.6 M71.8,151.7c-0.1,0-0.3,0-0.4-0.1
			c-0.2-0.1-0.4-0.1-0.6-0.2c-0.7-0.2-1.1-1-0.8-1.7c0.2-0.7,1-1.1,1.7-0.8c0.2,0.1,0.4,0.1,0.6,0.2c0.7,0.2,1.1,1,0.8,1.7
			C72.9,151.3,72.4,151.7,71.8,151.7 M108.1,152.9c-0.6,0-1.1-0.4-1.3-1c-0.2-0.7,0.2-1.4,1-1.6c0.2-0.1,0.4-0.1,0.6-0.2
			c0.7-0.2,1.4,0.2,1.6,0.9c0.2,0.7-0.2,1.4-0.9,1.6c-0.2,0.1-0.4,0.1-0.7,0.2C108.4,152.9,108.2,152.9,108.1,152.9 M76.3,153
			c-0.1,0-0.2,0-0.3,0c-0.2-0.1-0.4-0.1-0.7-0.2c-0.7-0.2-1.1-0.9-0.9-1.6c0.2-0.7,0.9-1.1,1.6-0.9c0.2,0.1,0.4,0.1,0.6,0.2
			c0.7,0.2,1.1,0.9,1,1.6C77.5,152.6,76.9,153,76.3,153 M103.6,154c-0.6,0-1.2-0.5-1.3-1.1c-0.1-0.7,0.3-1.4,1.1-1.6
			c0.2,0,0.4-0.1,0.6-0.1c0.7-0.1,1.4,0.3,1.6,1.1c0.1,0.7-0.3,1.4-1.1,1.6c-0.2,0-0.4,0.1-0.7,0.1C103.7,153.9,103.6,154,103.6,154
			 M80.9,154c-0.1,0-0.2,0-0.2,0c-0.2,0-0.4-0.1-0.7-0.1c-0.7-0.1-1.2-0.8-1.1-1.6c0.1-0.7,0.8-1.2,1.6-1.1c0.2,0,0.4,0.1,0.6,0.1
			c0.7,0.1,1.2,0.8,1.1,1.6C82.1,153.5,81.6,154,80.9,154 M98.9,154.6c-0.7,0-1.3-0.5-1.3-1.2c-0.1-0.7,0.5-1.4,1.2-1.5
			c0.2,0,0.4,0,0.7-0.1c0.7-0.1,1.4,0.4,1.5,1.2c0.1,0.7-0.4,1.4-1.2,1.5c-0.2,0-0.5,0.1-0.7,0.1C99,154.6,99,154.6,98.9,154.6
			 M85.6,154.7c0,0-0.1,0-0.1,0c-0.2,0-0.5,0-0.7-0.1c-0.7-0.1-1.3-0.7-1.2-1.5c0.1-0.7,0.7-1.3,1.5-1.2c0.2,0,0.4,0,0.7,0.1
			c0.7,0.1,1.3,0.7,1.2,1.5C86.8,154.1,86.2,154.7,85.6,154.7 M94.3,154.9c-0.7,0-1.3-0.6-1.3-1.3c0-0.7,0.6-1.4,1.3-1.4
			c0.2,0,0.4,0,0.7,0c0.7,0,1.4,0.5,1.4,1.3c0,0.7-0.5,1.4-1.3,1.4C94.8,154.9,94.5,154.9,94.3,154.9
			C94.3,154.9,94.3,154.9,94.3,154.9 M90.2,155C90.2,155,90.2,155,90.2,155c-0.3,0-0.5,0-0.7,0c-0.7,0-1.3-0.7-1.3-1.4
			c0-0.7,0.7-1.3,1.4-1.3c0.2,0,0.4,0,0.7,0c0.7,0,1.3,0.6,1.3,1.4C91.6,154.4,91,155,90.2,155"/>
		<path class="st2" d="M92.1,6.7C46.5,6.7,9.3,43.9,9.3,89.5s37.1,82.8,82.8,82.8s82.8-37.1,82.8-82.8S137.8,6.7,92.1,6.7
			 M92.1,174.3c-11.4,0-22.6-2.2-33-6.7c-5-2.1-9.9-4.8-14.4-7.8c-4.5-3-8.7-6.5-12.5-10.4c-3.8-3.8-7.3-8.1-10.4-12.5
			c-3.1-4.5-5.7-9.4-7.8-14.4c-4.4-10.5-6.7-21.6-6.7-33c0-11.4,2.2-22.6,6.7-33c2.1-5,4.8-9.9,7.8-14.4c3-4.5,6.5-8.7,10.4-12.5
			c3.8-3.8,8.1-7.3,12.5-10.4c4.5-3.1,9.4-5.7,14.4-7.8c10.5-4.4,21.6-6.7,33-6.7s22.6,2.2,33,6.7c5,2.1,9.9,4.8,14.4,7.8
			c4.5,3,8.7,6.5,12.5,10.4c3.8,3.8,7.3,8.1,10.4,12.5c3.1,4.5,5.7,9.4,7.8,14.4c4.4,10.5,6.7,21.6,6.7,33c0,11.4-2.2,22.6-6.7,33
			c-2.1,5-4.8,9.9-7.8,14.4c-3,4.5-6.5,8.7-10.4,12.5c-3.8,3.8-8.1,7.3-12.5,10.4c-4.5,3.1-9.4,5.7-14.4,7.8
			C114.7,172.1,103.6,174.3,92.1,174.3"/>
	</g>
</g>
</svg>
